<svg width="200" height="52" viewBox="0 0 200 52" fill="none" xmlns="http://www.w3.org/2000/svg">
<rect width="200" height="52" rx="4" fill="#005FF8"/>
<path d="M25.8281 33.2266V31H33.7734V33.2266H35.375V29.4922H33.9688V19.7266H26.625L26.2109 26.5625C26.125 28.0547 25.8438 29.0156 25.0391 29.4922H24.2188V33.2266H25.8281ZM27.8359 26.6484L28.1797 21.2344H32.2188V29.4922H27.0625V29.4297C27.6016 28.7891 27.7578 27.9219 27.8359 26.6484ZM40.25 31.1641C42.6016 31.1641 44.1484 29.5391 44.1484 26.8906V26.875C44.1484 24.2422 42.5859 22.625 40.25 22.625C37.9141 22.625 36.3516 24.25 36.3516 26.875V26.8906C36.3516 29.5312 37.8906 31.1641 40.25 31.1641ZM40.2578 29.75C38.9375 29.75 38.0781 28.7109 38.0781 26.8906V26.875C38.0781 25.0781 38.9453 24.0391 40.25 24.0391C41.5625 24.0391 42.4297 25.0781 42.4297 26.875V26.8906C42.4297 28.7031 41.5781 29.75 40.2578 29.75ZM49.25 31.1641C51.6719 31.1641 53.1641 29.5781 53.1641 27V26.9844C53.1641 24.5859 51.7422 23.0469 49.5234 23.0469C48.2266 23.0469 47.2266 23.5703 46.6953 24.5469H46.6562L46.6719 24.4375C46.9922 22.1953 47.6953 21.2422 49.8516 21.1641L50.5703 21.1328C51.5156 21.1016 52.3516 20.9219 52.625 20.7031V19.3047C52.1641 19.5312 51.3203 19.6797 50.4766 19.7109L49.7422 19.7344C46.625 19.8516 45.2969 21.6875 45.2969 26.2344V26.25C45.2969 29.4844 46.6797 31.1641 49.25 31.1641ZM49.2344 29.75C47.8281 29.75 47.0234 28.7656 47.0234 27.0234V27.0078C47.0234 25.3594 47.8359 24.4297 49.2344 24.4297C50.625 24.4297 51.4375 25.3594 51.4375 27.0078V27.0234C51.4375 28.7656 50.625 29.75 49.2344 29.75ZM57.0391 31.1484C58.1328 31.1484 59.0781 30.5859 59.5547 29.7031H59.5938V31H61.2812V25.3359C61.2812 23.6875 60.0078 22.625 58 22.625C55.9766 22.625 54.75 23.7109 54.6328 25.125L54.625 25.2109H56.2188L56.2344 25.1406C56.375 24.4844 56.9766 24.0234 57.9531 24.0234C59 24.0234 59.5938 24.5703 59.5938 25.4766V26.0938L57.3516 26.2266C55.4062 26.3438 54.2969 27.2188 54.2969 28.6484V28.6641C54.2969 30.1406 55.3984 31.1484 57.0391 31.1484ZM56 28.625V28.6094C56 27.9141 56.5625 27.4688 57.5781 27.4062L59.5938 27.2812V27.9219C59.5938 28.9922 58.6875 29.7969 57.5 29.7969C56.5938 29.7969 56 29.3438 56 28.625ZM63.0625 31H66.8438C68.625 31 69.7344 30.0781 69.7344 28.6406V28.625C69.7344 27.6172 69.0312 26.8828 67.9688 26.7422V26.6797C68.7578 26.5312 69.3672 25.7578 69.3672 24.9062V24.8906C69.3672 23.5859 68.3984 22.7812 66.7969 22.7812H63.0625V31ZM64.7344 26.1719V24.0312H66.4453C67.2578 24.0312 67.6953 24.3984 67.6953 25.0781V25.0938C67.6953 25.8203 67.2266 26.1719 66.2734 26.1719H64.7344ZM64.7344 29.75V27.3984H66.3359C67.4453 27.3984 68 27.7656 68 28.5547V28.5703C68 29.3516 67.4844 29.75 66.5312 29.75H64.7344ZM71.2344 31H72.8984L76.6719 25.2266H76.7422V31H78.4219V22.7812H76.7578L72.9844 28.5312H72.9062V22.7812H71.2344V31ZM86.4844 22.7812H79.6484V24.125H82.2188V31H83.9141V24.125H86.4844V22.7812ZM87.7188 31H90.9688C92.8672 31 94.0938 29.8984 94.0938 28.1641V28.1484C94.0938 26.4219 92.8672 25.3203 90.9688 25.3203H89.4062V22.7812H87.7188V31ZM90.8047 26.6562C91.7578 26.6562 92.3672 27.2422 92.3672 28.1484V28.1641C92.3672 29.0703 91.7656 29.6641 90.8047 29.6641H89.4062V26.6562H90.8047ZM101.711 31.1641C103.727 31.1641 105.062 30.1406 105.062 28.6094V28.5938C105.062 27.6328 104.469 26.9766 103.383 26.7578V26.6953C104.266 26.4922 104.836 25.7969 104.836 24.9141V24.8984C104.836 23.4922 103.68 22.625 101.789 22.625C99.9375 22.625 98.7266 23.5 98.5312 24.9609L98.5234 25.0234H100.133L100.141 24.9688C100.266 24.3438 100.883 23.9609 101.766 23.9609C102.656 23.9609 103.188 24.375 103.188 25.0781V25.0938C103.188 25.8281 102.68 26.2031 101.688 26.2031H100.508V27.4297H101.695C102.836 27.4297 103.383 27.8047 103.383 28.5938V28.6094C103.383 29.3594 102.742 29.8203 101.703 29.8203C100.773 29.8203 100.164 29.4609 99.9766 28.7969L99.9531 28.7188H98.2969L98.3047 28.7891C98.4688 30.2422 99.7891 31.1641 101.711 31.1641ZM108.961 31.1484C110.055 31.1484 111 30.5859 111.477 29.7031H111.516V31H113.203V25.3359C113.203 23.6875 111.93 22.625 109.922 22.625C107.898 22.625 106.672 23.7109 106.555 25.125L106.547 25.2109H108.141L108.156 25.1406C108.297 24.4844 108.898 24.0234 109.875 24.0234C110.922 24.0234 111.516 24.5703 111.516 25.4766V26.0938L109.273 26.2266C107.328 26.3438 106.219 27.2188 106.219 28.6484V28.6641C106.219 30.1406 107.32 31.1484 108.961 31.1484ZM107.922 28.625V28.6094C107.922 27.9141 108.484 27.4688 109.5 27.4062L111.516 27.2812V27.9219C111.516 28.9922 110.609 29.7969 109.422 29.7969C108.516 29.7969 107.922 29.3438 107.922 28.625ZM116.969 27.3359L119.992 31H122.078L118.477 26.6406L121.938 22.7812H119.945L116.969 26.1719H116.672V22.7812H114.984V31H116.672V27.3359H116.969ZM125.383 31.1484C126.477 31.1484 127.422 30.5859 127.898 29.7031H127.938V31H129.625V25.3359C129.625 23.6875 128.352 22.625 126.344 22.625C124.32 22.625 123.094 23.7109 122.977 25.125L122.969 25.2109H124.562L124.578 25.1406C124.719 24.4844 125.32 24.0234 126.297 24.0234C127.344 24.0234 127.938 24.5703 127.938 25.4766V26.0938L125.695 26.2266C123.75 26.3438 122.641 27.2188 122.641 28.6484V28.6641C122.641 30.1406 123.742 31.1484 125.383 31.1484ZM124.344 28.625V28.6094C124.344 27.9141 124.906 27.4688 125.922 27.4062L127.938 27.2812V27.9219C127.938 28.9922 127.031 29.7969 125.844 29.7969C124.938 29.7969 124.344 29.3438 124.344 28.625ZM134.367 31.1641C136.383 31.1641 137.719 30.1406 137.719 28.6094V28.5938C137.719 27.6328 137.125 26.9766 136.039 26.7578V26.6953C136.922 26.4922 137.492 25.7969 137.492 24.9141V24.8984C137.492 23.4922 136.336 22.625 134.445 22.625C132.594 22.625 131.383 23.5 131.188 24.9609L131.18 25.0234H132.789L132.797 24.9688C132.922 24.3438 133.539 23.9609 134.422 23.9609C135.312 23.9609 135.844 24.375 135.844 25.0781V25.0938C135.844 25.8281 135.336 26.2031 134.344 26.2031H133.164V27.4297H134.352C135.492 27.4297 136.039 27.8047 136.039 28.5938V28.6094C136.039 29.3594 135.398 29.8203 134.359 29.8203C133.43 29.8203 132.82 29.4609 132.633 28.7969L132.609 28.7188H130.953L130.961 28.7891C131.125 30.2422 132.445 31.1641 134.367 31.1641Z" fill="white"/>
<path d="M168 14C161.376 14 156 19.376 156 26C156 32.624 161.376 38 168 38C174.624 38 180 32.624 180 26C180 19.376 174.624 14 168 14ZM174 27.2H169.2V32H166.8V27.2H162V24.8H166.8V20H169.2V24.8H174V27.2Z" fill="#D8E4FB" fill-opacity="0.56"/>
</svg>
