<svg width="200" height="52" viewBox="0 0 200 52" fill="none" xmlns="http://www.w3.org/2000/svg">
<path d="M0 4C0 1.79086 1.79086 0 4 0H196C198.209 0 200 1.79086 200 4V48C200 50.2091 198.209 52 196 52H4C1.79086 52 0 50.2091 0 48V4Z" fill="#005FF8"/>
<path d="M70.9844 31.1875C74.2422 31.1875 76.2656 28.9453 76.2656 25.3672V25.3516C76.2656 21.7812 74.2344 19.5391 70.9844 19.5391C67.7422 19.5391 65.7031 21.7734 65.7031 25.3516V25.3672C65.7031 28.9531 67.7344 31.1875 70.9844 31.1875ZM70.9844 29.6406C68.8438 29.6406 67.4844 27.9922 67.4844 25.3672V25.3516C67.4844 22.7266 68.8516 21.0859 70.9844 21.0859C73.125 21.0859 74.4766 22.7344 74.4766 25.3516V25.3672C74.4766 27.9688 73.1484 29.6406 70.9844 29.6406ZM77.875 31H79.5625V24.125H83.1875V31H84.8828V22.7812H77.875V31ZM89.2578 27.3125L89.4844 24.125H92.3203V31H94.0078V22.7812H88L87.7031 27.2266C87.6016 28.7188 87.3125 29.5703 86.4609 29.5703C86.25 29.5703 86.1016 29.5391 86.0234 29.5156V30.9922C86.1406 31.0312 86.375 31.0781 86.6953 31.0781C88.5391 31.0781 89.0938 29.6172 89.2578 27.3125ZM98.2422 31.1484C99.3359 31.1484 100.281 30.5859 100.758 29.7031H100.797V31H102.484V25.3359C102.484 23.6875 101.211 22.625 99.2031 22.625C97.1797 22.625 95.9531 23.7109 95.8359 25.125L95.8281 25.2109H97.4219L97.4375 25.1406C97.5781 24.4844 98.1797 24.0234 99.1562 24.0234C100.203 24.0234 100.797 24.5703 100.797 25.4766V26.0938L98.5547 26.2266C96.6094 26.3438 95.5 27.2188 95.5 28.6484V28.6641C95.5 30.1406 96.6016 31.1484 98.2422 31.1484ZM97.2031 28.625V28.6094C97.2031 27.9141 97.7656 27.4688 98.7812 27.4062L100.797 27.2812V27.9219C100.797 28.9922 99.8906 29.7969 98.7031 29.7969C97.7969 29.7969 97.2031 29.3438 97.2031 28.625ZM110.391 22.7812H103.555V24.125H106.125V31H107.82V24.125H110.391V22.7812ZM113.773 31.1484C114.867 31.1484 115.812 30.5859 116.289 29.7031H116.328V31H118.016V25.3359C118.016 23.6875 116.742 22.625 114.734 22.625C112.711 22.625 111.484 23.7109 111.367 25.125L111.359 25.2109H112.953L112.969 25.1406C113.109 24.4844 113.711 24.0234 114.688 24.0234C115.734 24.0234 116.328 24.5703 116.328 25.4766V26.0938L114.086 26.2266C112.141 26.3438 111.031 27.2188 111.031 28.6484V28.6641C111.031 30.1406 112.133 31.1484 113.773 31.1484ZM112.734 28.625V28.6094C112.734 27.9141 113.297 27.4688 114.312 27.4062L116.328 27.2812V27.9219C116.328 28.9922 115.422 29.7969 114.234 29.7969C113.328 29.7969 112.734 29.3438 112.734 28.625Z" fill="white"/>
<path d="M165 13.5C158.1 13.5 152.5 19.1 152.5 26C152.5 32.9 158.1 38.5 165 38.5C171.9 38.5 177.5 32.9 177.5 26C177.5 19.1 171.9 13.5 165 13.5ZM166.25 32.25H163.75V29.75H166.25V32.25ZM166.25 27.25H163.75V19.75H166.25V27.25Z" fill="#D8E4FB" fill-opacity="0.56"/>
</svg>
